# xmcd
#
# Track frame offsets: 
#        150
#        15170
#        29440
#        59108
#        79391
#        104968
#        125155
#        146540
#        162647
#        176172
#        191040
#
# Disc length: 2733 seconds
#
# Revision: 0
# Processed by: cddbd v1.5.2PL0 Copyright (c) Steve Scherf et al.
# Submitted via: ExactAudioCopy v0.95b4
#
DISCID=aa0aab0b
DTITLE=Eric Hanke - Autumn Blues
DYEAR=2006
DGENRE=Country
TTITLE0=Lonely Road
TTITLE1=Autumn Blues
TTITLE2=The War
TTITLE3=Flora
TTITLE4=Ride Away
TTITLE5=Time
TTITLE6=Smoke Through The Old Screen Door
TTITLE7=Where Are You Goin
TTITLE8=Broken Dreams
TTITLE9=Cryin' Over You
TTITLE10=Suns Gonna Shine
EXTD=
EXTT0=
EXTT1=
EXTT2=
EXTT3=
EXTT4=
EXTT5=
EXTT6=
EXTT7=
EXTT8=
EXTT9=
EXTT10=
PLAYORDER=
